<!--?xml version="1.0" standalone="no"?-->              <svg id="sw-js-blob-svg" viewBox="0 0 100 100" xmlns="http://www.w3.org/2000/svg">                    <defs>                         <linearGradient id="sw-gradient" x1="0" x2="1" y1="1" y2="0">                            <stop id="stop1" stop-color="rgba(255, 81.917, 0, 1)" offset="0%"></stop>                            <stop id="stop2" stop-color="rgba(210.745, 3.049, 3.049, 1)" offset="100%"></stop>                        </linearGradient>                    </defs>                <path fill="url(#sw-gradient)" d="M20.1,-24.4C25.7,-19.3,29.6,-12.6,32.2,-4.7C34.8,3.3,36.1,12.5,33.1,20.4C30.1,28.4,22.7,35.3,14,38.4C5.3,41.5,-4.7,41,-13.8,37.7C-22.8,34.5,-30.9,28.5,-34.3,20.7C-37.6,13,-36.2,3.4,-32.8,-4.1C-29.5,-11.6,-24.2,-17.1,-18.4,-22.2C-12.6,-27.3,-6.3,-32,0.5,-32.5C7.3,-33.1,14.5,-29.5,20.1,-24.4Z" width="100%" height="100%" transform="translate(50 50)" stroke-width="0" style="transition: all 0.3s ease 0s;"></path>              </svg>